<svg width="341" height="496" fill="none" xmlns="http://www.w3.org/2000/svg"><path d="M3 0v70.113c0 13.807 11.193 25 25 25h285c13.807 0 25 11.193 25 25V176c0 13.807-11.193 25-25 25H28c-13.807 0-25 11.193-25 25v61.5c0 13.807 11.193 25 25 25h285c13.807 0 25 11.193 25 25V410c0 13.807-11.193 25-25 25H28c-13.807 0-25 11.193-25 25v35.5" stroke="url(#a)" stroke-width="5"/><path d="M3 0v70.113c0 13.807 11.193 25 25 25h285c13.807 0 25 11.193 25 25V176c0 13.807-11.193 25-25 25H28c-13.807 0-25 11.193-25 25v61.5c0 13.807 11.193 25 25 25h285c13.807 0 25 11.193 25 25V410c0 13.807-11.193 25-25 25H28c-13.807 0-25 11.193-25 25v35.5" stroke="url(#b)" stroke-width="5"/><path d="M3 0v70.113c0 13.807 11.193 25 25 25h285c13.807 0 25 11.193 25 25V176c0 13.807-11.193 25-25 25H28c-13.807 0-25 11.193-25 25v61.5c0 13.807 11.193 25 25 25h285c13.807 0 25 11.193 25 25V410c0 13.807-11.193 25-25 25H28c-13.807 0-25 11.193-25 25v35.5" stroke="url(#c)" stroke-width="5"/><defs><linearGradient id="a" x1="3" y1="-79.838" x2="1245.78" y2="686.052" gradientUnits="userSpaceOnUse"><stop stop-color="#C5EF00"/><stop offset=".542" stop-color="#DFDFDF"/><stop offset="1" stop-color="#C5EF00"/></linearGradient><linearGradient id="b" x1="3" y1="0" x2="128.295" y2="134.058" gradientUnits="userSpaceOnUse"><stop/><stop offset="1" stop-opacity="0"/></linearGradient><linearGradient id="c" x1="44" y1="433.5" x2="2.983" y2="495.989" gradientUnits="userSpaceOnUse"><stop offset=".23" stop-opacity="0"/><stop offset="1"/></linearGradient></defs></svg>