<svg width="341" height="753" fill="none" xmlns="http://www.w3.org/2000/svg"><path d="M3 0v106.113c0 13.807 11.193 25 25 25h285c13.807 0 25 11.193 25 25V283c0 13.807-11.193 25-25 25H28c-13.807 0-25 11.193-25 25v111.5c0 13.807 11.193 25 25 25h285c13.807 0 25 11.193 25 25v108c0 13.807-11.193 25-25 25H28c-13.807 0-25 11.193-25 25V753" stroke="url(#a)" stroke-width="5"/><path d="M3 0v106.113c0 13.807 11.193 25 25 25h285c13.807 0 25 11.193 25 25V283c0 13.807-11.193 25-25 25H28c-13.807 0-25 11.193-25 25v111.5c0 13.807 11.193 25 25 25h285c13.807 0 25 11.193 25 25v108c0 13.807-11.193 25-25 25H28c-13.807 0-25 11.193-25 25V753" stroke="url(#b)" stroke-width="5"/><path d="M3 0v106.113c0 13.807 11.193 25 25 25h285c13.807 0 25 11.193 25 25V283c0 13.807-11.193 25-25 25H28c-13.807 0-25 11.193-25 25v111.5c0 13.807 11.193 25 25 25h285c13.807 0 25 11.193 25 25v108c0 13.807-11.193 25-25 25H28c-13.807 0-25 11.193-25 25V753" stroke="url(#c)" stroke-width="5"/><defs><linearGradient id="a" x1="3.001" y1="-43.839" x2="1245.78" y2="722.051" gradientUnits="userSpaceOnUse"><stop stop-color="#C5EF00"/><stop offset=".542" stop-color="#DFDFDF"/><stop offset="1" stop-color="#C5EF00"/></linearGradient><linearGradient id="b" x1="3" y1="0" x2="128.286" y2="170.058" gradientUnits="userSpaceOnUse"><stop/><stop offset="1" stop-opacity="0"/></linearGradient><linearGradient id="c" x1="41" y1="535.5" x2="-5.596" y2="890.487" gradientUnits="userSpaceOnUse"><stop offset=".23" stop-opacity="0"/><stop offset=".594"/></linearGradient></defs></svg>