<svg width="814" height="356" fill="none" xmlns="http://www.w3.org/2000/svg"><path d="M3 3v77.387c0 27.614 22.386 50 50 50h304.25c27.614 0 50-22.386 50-50V53c0-27.614 22.386-50 50-50H761.5c27.614 0 50 22.386 50 50v77.387" stroke="url(#a)" stroke-width="5"/><path d="M3 3v77.387c0 27.614 22.386 50 50 50h304.25c27.614 0 50-22.386 50-50V53c0-27.614 22.386-50 50-50H761.5c27.614 0 50 22.386 50 50v77.387" stroke="url(#b)" stroke-width="5"/><path d="M3 3v77.387c0 27.614 22.386 50 50 50h304.25c27.614 0 50-22.386 50-50V53c0-27.614 22.386-50 50-50H761.5c27.614 0 50 22.386 50 50v77.387" stroke="url(#c)" stroke-width="5"/><path d="M3 224.774v78c0 27.614 22.386 50 50 50h293c27.614 0 50-22.386 50-50v-28c0-27.614 22.386-50 50-50h293c27.614 0 50 22.386 50 50v78" stroke="url(#d)" stroke-width="5"/><path d="M3 224.774v78c0 27.614 22.386 50 50 50h293c27.614 0 50-22.386 50-50v-28c0-27.614 22.386-50 50-50h293c27.614 0 50 22.386 50 50v78" stroke="url(#e)" stroke-width="5"/><path d="M3 224.774v78c0 27.614 22.386 50 50 50h293c27.614 0 50-22.386 50-50v-28c0-27.614 22.386-50 50-50h293c27.614 0 50 22.386 50 50v78" stroke="url(#f)" stroke-width="5"/><defs><linearGradient id="a" x1="3.001" y1="-44.564" x2="1245.78" y2="721.326" gradientUnits="userSpaceOnUse"><stop stop-color="#C5EF00"/><stop offset=".542" stop-color="#DFDFDF"/><stop offset="1" stop-color="#C5EF00"/></linearGradient><linearGradient id="b" x1="3" y1="-50.598" x2="128.274" y2="169.333" gradientUnits="userSpaceOnUse"><stop/><stop offset="1" stop-opacity="0"/></linearGradient><linearGradient id="c" x1="559.5" y1="-16.226" x2="1001.93" y2="230.893" gradientUnits="userSpaceOnUse"><stop offset=".23" stop-opacity="0"/><stop offset=".594"/></linearGradient><linearGradient id="d" x1="3.001" y1="176.981" x2="376.475" y2="608.815" gradientUnits="userSpaceOnUse"><stop offset=".254" stop-color="#DFDFDF"/><stop offset=".952" stop-color="#C5EF00"/></linearGradient><linearGradient id="e" x1="3" y1="170.919" x2="130.963" y2="388.272" gradientUnits="userSpaceOnUse"><stop offset=".233"/><stop offset="1" stop-opacity="0"/></linearGradient><linearGradient id="f" x1="544.013" y1="205.456" x2="980.772" y2="441.481" gradientUnits="userSpaceOnUse"><stop offset=".23" stop-opacity="0"/><stop offset=".594"/></linearGradient></defs></svg>