<svg width="1566" height="351" fill="none" xmlns="http://www.w3.org/2000/svg"><path d="M3 0v176.452c0 27.614 22.386 50 50 50h295.132c27.614 0 50-22.386 50-50v-24.549c0-27.614 22.385-50 50-50h295.131c27.614 0 50 22.386 50 50v64.986c0 27.615 22.386 50 50 50h382.367c27.62 0 50-22.385 50-50v-42.341c0-27.614 22.39-50 50-50H1513c27.61 0 50 22.386 50 50V351" stroke="url(#a)" stroke-width="5"/><path d="M3 0v176.452c0 27.614 22.386 50 50 50h295.132c27.614 0 50-22.386 50-50v-24.549c0-27.614 22.385-50 50-50h295.131c27.614 0 50 22.386 50 50v64.986c0 27.615 22.386 50 50 50h382.367c27.62 0 50-22.385 50-50v-42.341c0-27.614 22.39-50 50-50H1513c27.61 0 50 22.386 50 50V351" stroke="url(#b)" stroke-width="5"/><path d="M3 0v176.452c0 27.614 22.386 50 50 50h295.132c27.614 0 50-22.386 50-50v-24.549c0-27.614 22.385-50 50-50h295.131c27.614 0 50 22.386 50 50v64.986c0 27.615 22.386 50 50 50h382.367c27.62 0 50-22.385 50-50v-42.341c0-27.614 22.39-50 50-50H1513c27.61 0 50 22.386 50 50V351" stroke="url(#c)" stroke-width="5"/><defs><linearGradient id="a" x1="3" y1="55.4" x2="1217.93" y2="803.921" gradientUnits="userSpaceOnUse"><stop stop-color="#C5EF00"/><stop offset=".542" stop-color="#DFDFDF"/><stop offset="1" stop-color="#C5EF00"/></linearGradient><linearGradient id="b" x1="3" y1="49.5" x2="125.5" y2="264.5" gradientUnits="userSpaceOnUse"><stop/><stop offset="1" stop-opacity="0"/></linearGradient><linearGradient id="c" x1="1563" y1="351" x2="1396.5" y2="135" gradientUnits="userSpaceOnUse"><stop/><stop offset="1" stop-opacity="0"/></linearGradient></defs></svg>