<svg width="50" height="50" viewBox="0 0 50 50" fill="none" xmlns="http://www.w3.org/2000/svg">
    <g clip-path="url(#clip0_1_108)">
        <path d="M33.7746 28.077C32.5493 27.3519 30.4085 25.5784 28.4138 27.4766C27.943 27.9557 27.6314 28.2765 27.43 28.4825C25.618 27.6242 22.3961 24.5133 21.5607 22.5503C24.5209 19.8594 23.1506 18.8996 20.2393 13.3702C19.7418 12.5119 18.9354 11.9424 17.9512 11.9424C16.7458 11.9424 16.2746 12.5363 14.5527 14.2789C12.3966 16.4601 11.1313 17.1452 11.9423 20.8413C14.2502 31.3622 29.652 41.8992 34.0137 37.1888C37.5763 33.6503 38.2633 33.315 38.0547 31.7147C37.7918 30.1213 36.5692 29.7307 33.7746 28.077ZM31.8668 35.1953C31.6177 35.4718 30.1262 35.563 27.652 34.5361C22.9603 32.5891 18.0935 27.4796 16.0992 23.6653C15.464 22.4503 14.0594 18.8477 14.8392 18.1451C15.1581 17.8426 17.3023 15.6529 17.8509 15.1223C19.3111 17.8903 20.0222 19.1842 20.2583 19.7114C19.8383 20.3599 18.4952 20.8676 18.4952 22.4584C19.0861 25.5662 23.1293 29.3748 25.5459 30.7919C28.0125 32.2385 28.8017 31.2715 29.7001 30.3506C30.5023 29.5289 30.4337 29.5789 30.5172 29.5705L34.9297 32.1637C34.4124 32.7046 32.2239 34.8199 31.8668 35.1953Z"
              fill="white"/>
        <path d="M25 0C11.1813 0 0 11.1832 0 25C0 38.8187 11.1832 50 25 50C38.8187 50 50 38.8168 50 25C50 11.1813 38.8168 0 25 0ZM25 47.0703C12.8006 47.0703 2.92969 37.1975 2.92969 25C2.92969 12.8006 12.8025 2.92969 25 2.92969C37.1994 2.92969 47.0703 12.8025 47.0703 25C47.0703 37.1994 37.1975 47.0703 25 47.0703Z"
              fill="white"/>
    </g>
    <defs>
        <clipPath id="clip0_1_108">
            <rect width="50" height="50" fill="white"/>
        </clipPath>
    </defs>
</svg>
