<svg width="50" height="50" viewBox="0 0 50 50" fill="none" xmlns="http://www.w3.org/2000/svg">
    <g clip-path="url(#clip0_1_112)">
        <path d="M38.1199 13.7695H11.8801C10.3341 13.7695 9.08203 15.0294 9.08203 16.5676V33.3561C9.08203 34.9034 10.3433 36.1542 11.8801 36.1542H38.1199C39.6529 36.1542 40.918 34.9087 40.918 33.3561V16.5676C40.918 15.0321 39.6708 13.7695 38.1199 13.7695ZM37.728 15.6349C37.1564 16.2036 27.3182 25.9899 26.9786 26.3278C26.45 26.8563 25.7474 27.1473 25 27.1473C24.2526 27.1473 23.55 26.8562 23.0197 26.326C22.7913 26.0987 13.0617 16.4205 12.272 15.6349H37.728ZM10.9474 32.9764V16.9485L19.0083 24.9668L10.9474 32.9764ZM12.2731 34.2888L20.3308 26.2824L21.7024 27.6468C22.5833 28.5276 23.7544 29.0127 25 29.0127C26.2456 29.0127 27.4167 28.5276 28.2958 27.6485L29.6692 26.2824L37.7269 34.2888H12.2731ZM39.0526 32.9764L30.9917 24.9668L39.0526 16.9485V32.9764Z"
              fill="white"/>
        <path d="M25 0C11.1813 0 0 11.1832 0 25C0 38.8187 11.1832 50 25 50C38.8187 50 50 38.8168 50 25C50 11.1813 38.8168 0 25 0ZM25 47.0703C12.8006 47.0703 2.92969 37.1975 2.92969 25C2.92969 12.8006 12.8025 2.92969 25 2.92969C37.1994 2.92969 47.0703 12.8025 47.0703 25C47.0703 37.1994 37.1975 47.0703 25 47.0703Z"
              fill="white"/>
    </g>
    <defs>
        <clipPath id="clip0_1_112">
            <rect width="50" height="50" fill="white"/>
        </clipPath>
    </defs>
</svg>
