<svg width="50" height="50" viewBox="0 0 50 50" fill="none" xmlns="http://www.w3.org/2000/svg">
    <g clip-path="url(#clip0_1_118)">
        <path d="M24.9145 24.9695C26.8336 24.9695 28.4952 24.2811 29.8533 22.9231C31.2109 21.5653 31.8994 19.9039 31.8994 17.9845C31.8994 16.0658 31.2111 14.4042 29.8531 13.0459C28.495 11.6883 26.8334 11 24.9145 11C22.9951 11 21.3337 11.6883 19.9759 13.0461C18.6181 14.404 17.9295 16.0656 17.9295 17.9845C17.9295 19.9039 18.6181 21.5655 19.9759 22.9233C21.3342 24.2809 22.9958 24.9695 24.9145 24.9695ZM21.1777 14.2478C22.2196 13.2059 23.4418 12.6994 24.9145 12.6994C26.3869 12.6994 27.6093 13.2059 28.6514 14.2478C29.6933 15.2899 30.2 16.5123 30.2 17.9845C30.2 19.4572 29.6933 20.6794 28.6514 21.7215C27.6093 22.7636 26.3869 23.27 24.9145 23.27C23.4423 23.27 22.2201 22.7633 21.1777 21.7215C20.1356 20.6796 19.629 19.4572 19.629 17.9845C19.629 16.5123 20.1356 15.2899 21.1777 14.2478Z"
              fill="white"/>
        <path d="M37.1363 33.2998C37.0971 32.7347 37.0179 32.1183 36.9013 31.4673C36.7836 30.8115 36.632 30.1916 36.4506 29.625C36.263 29.0393 36.0083 28.461 35.693 27.9067C35.3662 27.3315 34.9821 26.8305 34.5511 26.4183C34.1004 25.9871 33.5486 25.6404 32.9105 25.3875C32.2747 25.136 31.57 25.0085 30.8162 25.0085C30.5201 25.0085 30.2338 25.13 29.6809 25.49C29.3406 25.7119 28.9426 25.9685 28.4983 26.2524C28.1184 26.4945 27.6038 26.7212 26.9681 26.9266C26.348 27.1272 25.7183 27.229 25.0966 27.229C24.4753 27.229 23.8456 27.1272 23.225 26.9266C22.59 26.7215 22.0751 26.4947 21.6959 26.2526C21.2558 25.9714 20.8576 25.7148 20.5122 25.4897C19.9597 25.1298 19.6734 25.0083 19.3774 25.0083C18.6234 25.0083 17.9189 25.136 17.2832 25.3877C16.6456 25.6402 16.0936 25.9869 15.6424 26.4186C15.2114 26.831 14.8273 27.3317 14.5008 27.9067C14.1859 28.461 13.931 29.0391 13.7434 29.6252C13.5622 30.1918 13.4106 30.8115 13.2929 31.4673C13.1761 32.1174 13.0971 32.734 13.058 33.3004C13.0195 33.8542 13 34.4306 13 35.0129C13 36.5267 13.4812 37.7522 14.4302 38.6561C15.3674 39.5479 16.6073 40.0002 18.1156 40.0002H32.0793C33.5871 40.0002 34.827 39.5479 35.7645 38.6561C36.7137 37.7529 37.1949 36.5269 37.1949 35.0127C37.1947 34.4284 37.175 33.852 37.1363 33.2998ZM34.5927 37.4248C33.9734 38.0142 33.1513 38.3007 32.0791 38.3007H18.1156C17.0432 38.3007 16.221 38.0142 15.6019 37.425C14.9946 36.8469 14.6994 36.0577 14.6994 35.0129C14.6994 34.4695 14.7174 33.933 14.7532 33.4179C14.7882 32.9126 14.8596 32.3574 14.9656 31.7676C15.0703 31.185 15.2035 30.6383 15.3619 30.1434C15.5139 29.6688 15.7212 29.1988 15.9783 28.7461C16.2237 28.3147 16.506 27.9445 16.8175 27.6463C17.1089 27.3673 17.4762 27.139 17.9089 26.9677C18.3092 26.8093 18.759 26.7226 19.2473 26.7095C19.3068 26.7412 19.4128 26.8016 19.5845 26.9135C19.9338 27.1412 20.3365 27.4009 20.7817 27.6852C21.2835 28.0052 21.93 28.2941 22.7024 28.5435C23.492 28.7988 24.2974 28.9285 25.0968 28.9285C25.8962 28.9285 26.7017 28.7988 27.491 28.5437C28.264 28.2939 28.9103 28.0052 29.4128 27.6848C29.8683 27.3936 30.2597 27.1414 30.6091 26.9135C30.7808 26.8018 30.8867 26.7412 30.9463 26.7095C31.4348 26.7226 31.8846 26.8093 32.2851 26.9677C32.7176 27.139 33.0849 27.3675 33.3763 27.6463C33.6878 27.9443 33.9701 28.3145 34.2155 28.7464C34.4728 29.1988 34.6803 29.669 34.8321 30.1431C34.9908 30.6387 35.1242 31.1852 35.2286 31.7674C35.3344 32.3583 35.4061 32.9137 35.441 33.4181V33.4186C35.4771 33.9316 35.4952 34.468 35.4954 35.0129C35.4952 36.0579 35.2001 36.8469 34.5927 37.4248Z"
              fill="white"/>
        <path d="M25 0C11.1813 0 0 11.1832 0 25C0 38.8187 11.1832 50 25 50C38.8187 50 50 38.8168 50 25C50 11.1813 38.8168 0 25 0ZM25 47.0703C12.8006 47.0703 2.92969 37.1975 2.92969 25C2.92969 12.8006 12.8025 2.92969 25 2.92969C37.1994 2.92969 47.0703 12.8025 47.0703 25C47.0703 37.1994 37.1975 47.0703 25 47.0703Z"
              fill="white"/>
    </g>
    <defs>
        <clipPath id="clip0_1_118">
            <rect width="49.9999" height="50" fill="white"/>
        </clipPath>
    </defs>
</svg>
