<svg width="50" height="50" viewBox="0 0 50 50" fill="none" xmlns="http://www.w3.org/2000/svg">
<g clip-path="url(#clip0_1_54)">
<path d="M25 0C11.215 0 0 11.2152 0 25.0002C0 38.7852 11.215 50 25 50C38.785 50 50 38.7852 50 25.0002C50 11.2152 38.785 0 25 0ZM25 45.4545C13.7212 45.4545 4.54545 36.2788 4.54545 25.0002C4.54545 13.7215 13.7212 4.54545 25 4.54545C36.2788 4.54545 45.4545 13.7215 45.4545 25.0002C45.4545 36.2788 36.2786 45.4545 25 45.4545Z" fill="#C5EF00"/>
<path d="M24.9997 10.6061C23.3291 10.6061 21.97 11.9661 21.97 13.6377C21.97 15.3079 23.3291 16.6667 24.9997 16.6667C26.6703 16.6667 28.0294 15.3079 28.0294 13.6377C28.0294 11.9661 26.6703 10.6061 24.9997 10.6061Z" fill="#C5EF00"/>
<path d="M25 21.2122C23.7448 21.2122 22.7273 22.2297 22.7273 23.4849V37.1212C22.7273 38.3764 23.7448 39.394 25 39.394C26.2551 39.394 27.2727 38.3764 27.2727 37.1212V23.4849C27.2727 22.2297 26.2551 21.2122 25 21.2122Z" fill="#C5EF00"/>
</g>
<defs>
<clipPath id="clip0_1_54">
<rect width="50" height="50" fill="white"/>
</clipPath>
</defs>
</svg>
