<svg width="50" height="50" fill="none" xmlns="http://www.w3.org/2000/svg"><g clip-path="url(#a)" fill="#fff"><path d="M33.775 28.077c-1.226-.725-3.366-2.499-5.361-.6-.471.479-.783.8-.984 1.006-1.812-.859-5.034-3.97-5.87-5.933 2.96-2.69 1.59-3.65-1.32-9.18-.498-.858-1.305-1.428-2.289-1.428-1.205 0-1.676.594-3.398 2.337-2.156 2.181-3.422 2.866-2.61 6.562C14.25 31.362 29.651 41.9 34.012 37.19c3.563-3.539 4.25-3.874 4.042-5.474-.263-1.594-1.486-1.984-4.28-3.638Zm-1.908 7.118c-.25.277-1.74.368-4.215-.659-4.692-1.947-9.559-7.056-11.553-10.87-.635-1.216-2.04-4.818-1.26-5.52.32-.303 2.463-2.493 3.012-3.024 1.46 2.768 2.171 4.062 2.407 4.59-.42.648-1.763 1.156-1.763 2.746.591 3.108 4.634 6.917 7.05 8.334 2.467 1.447 3.257.48 4.155-.441.802-.822.734-.772.817-.78l4.413 2.593c-.518.54-2.706 2.656-3.063 3.031Z"/><path d="M25 0C11.181 0 0 11.183 0 25c0 13.819 11.183 25 25 25 13.819 0 25-11.183 25-25C50 11.181 38.817 0 25 0Zm0 47.07C12.8 47.07 2.93 37.197 2.93 25 2.93 12.8 12.803 2.93 25 2.93c12.2 0 22.07 9.873 22.07 22.07 0 12.2-9.873 22.07-22.07 22.07Z"/></g><defs><clipPath id="a"><path fill="#fff" d="M0 0h50v50H0z"/></clipPath></defs></svg>