<svg width="50" height="50" fill="none" xmlns="http://www.w3.org/2000/svg"><g clip-path="url(#a)" fill="#fff"><path d="M38.12 13.77H11.88a2.802 2.802 0 0 0-2.798 2.798v16.788a2.802 2.802 0 0 0 2.798 2.798h26.24a2.801 2.801 0 0 0 2.798-2.798V16.568a2.8 2.8 0 0 0-2.798-2.799Zm-.392 1.865-10.75 10.693a2.78 2.78 0 0 1-1.978.82c-.747 0-1.45-.292-1.98-.822L12.272 15.635h25.456Zm-26.78 17.341V16.95l8.06 8.018-8.06 8.01Zm1.325 1.313 8.058-8.007 1.371 1.365A4.633 4.633 0 0 0 25 29.013a4.631 4.631 0 0 0 3.296-1.365l1.373-1.366 8.058 8.007H12.273Zm26.78-1.313-8.061-8.01 8.06-8.018v16.028Z"/><path d="M25 0C11.181 0 0 11.183 0 25c0 13.819 11.183 25 25 25 13.819 0 25-11.183 25-25C50 11.181 38.817 0 25 0Zm0 47.07C12.8 47.07 2.93 37.197 2.93 25 2.93 12.8 12.803 2.93 25 2.93c12.2 0 22.07 9.873 22.07 22.07 0 12.2-9.873 22.07-22.07 22.07Z"/></g><defs><clipPath id="a"><path fill="#fff" d="M0 0h50v50H0z"/></clipPath></defs></svg>