<svg width="50" height="50" fill="none" xmlns="http://www.w3.org/2000/svg"><g clip-path="url(#a)" fill="#fff"><path d="M24.915 24.97c1.919 0 3.58-.689 4.938-2.047 1.358-1.358 2.046-3.02 2.046-4.938 0-1.92-.688-3.58-2.046-4.94C28.495 11.689 26.833 11 24.914 11s-3.58.688-4.938 2.046c-1.358 1.358-2.046 3.02-2.046 4.939s.688 3.58 2.046 4.938c1.358 1.358 3.02 2.047 4.939 2.047Zm-3.737-10.722c1.042-1.042 2.264-1.549 3.736-1.549 1.473 0 2.695.507 3.737 1.549 1.042 1.042 1.549 2.264 1.549 3.737 0 1.472-.507 2.694-1.549 3.736-1.042 1.043-2.264 1.549-3.736 1.549-1.473 0-2.695-.507-3.737-1.549-1.042-1.041-1.549-2.264-1.549-3.736 0-1.473.507-2.695 1.549-3.737ZM37.136 33.3a17.266 17.266 0 0 0-.235-1.833 14.438 14.438 0 0 0-.45-1.842 9.1 9.1 0 0 0-.758-1.718 6.48 6.48 0 0 0-1.142-1.489 5.036 5.036 0 0 0-1.64-1.03 5.67 5.67 0 0 0-2.095-.38c-.296 0-.582.122-1.135.482-.34.222-.738.479-1.183.762-.38.242-.894.47-1.53.675-.62.2-1.25.302-1.871.302a6.083 6.083 0 0 1-1.872-.302c-.635-.206-1.15-.432-1.53-.674-.44-.282-.837-.538-1.183-.763-.552-.36-.839-.482-1.135-.482-.754 0-1.458.128-2.094.38a5.024 5.024 0 0 0-1.64 1.03 6.477 6.477 0 0 0-1.142 1.489 9.115 9.115 0 0 0-.758 1.718 14.47 14.47 0 0 0-.45 1.842c-.117.65-.196 1.267-.235 1.833-.038.554-.058 1.13-.058 1.713 0 1.514.481 2.74 1.43 3.643.937.892 2.177 1.344 3.686 1.344h13.963c1.508 0 2.748-.452 3.685-1.344.95-.903 1.43-2.13 1.43-3.643 0-.585-.019-1.161-.058-1.713Zm-2.543 4.125c-.62.59-1.442.876-2.514.876H18.116c-1.073 0-1.895-.287-2.514-.876-.607-.578-.903-1.367-.903-2.412 0-.544.018-1.08.054-1.595.035-.505.107-1.06.213-1.65.104-.583.238-1.13.396-1.625.152-.474.36-.944.616-1.397.246-.431.528-.801.84-1.1a3.342 3.342 0 0 1 1.09-.678 3.93 3.93 0 0 1 1.34-.259c.059.032.165.093.336.204.35.228.753.488 1.198.772.502.32 1.148.61 1.92.859.79.255 1.595.384 2.395.384s1.605-.13 2.394-.384c.773-.25 1.42-.539 1.922-.86.455-.29.847-.543 1.196-.77a4.63 4.63 0 0 1 .337-.205c.489.014.939.1 1.34.259.432.171.799.4 1.09.678.312.298.594.668.84 1.1a7.4 7.4 0 0 1 .616 1.397c.159.496.292 1.042.397 1.624.105.591.177 1.147.212 1.651.036.514.054 1.05.054 1.595 0 1.045-.295 1.834-.902 2.412Z"/><path d="M25 0C11.181 0 0 11.183 0 25c0 13.819 11.183 25 25 25 13.819 0 25-11.183 25-25C50 11.181 38.817 0 25 0Zm0 47.07C12.8 47.07 2.93 37.197 2.93 25 2.93 12.8 12.803 2.93 25 2.93c12.2 0 22.07 9.873 22.07 22.07 0 12.2-9.873 22.07-22.07 22.07Z"/></g><defs><clipPath id="a"><path fill="#fff" d="M0 0h50v50H0z"/></clipPath></defs></svg>