<svg width="50" height="50" fill="none" xmlns="http://www.w3.org/2000/svg"><g clip-path="url(#a)" fill="#C5EF00"><path d="M25 0C11.215 0 0 11.215 0 25s11.215 25 25 25 25-11.215 25-25S38.785 0 25 0Zm0 45.455C13.721 45.455 4.545 36.279 4.545 25 4.545 13.722 13.721 4.545 25 4.545c11.279 0 20.455 9.177 20.455 20.455 0 11.279-9.176 20.455-20.455 20.455Z"/><path d="M25 10.606c-1.67 0-3.03 1.36-3.03 3.032 0 1.67 1.36 3.029 3.03 3.029 1.67 0 3.03-1.36 3.03-3.03a3.034 3.034 0 0 0-3.03-3.03Zm0 10.606a2.273 2.273 0 0 0-2.273 2.273V37.12a2.273 2.273 0 1 0 4.546 0V23.485A2.273 2.273 0 0 0 25 21.212Z"/></g><defs><clipPath id="a"><path fill="#fff" d="M0 0h50v50H0z"/></clipPath></defs></svg>