<svg width="341" height="496" viewBox="0 0 341 496" fill="none" xmlns="http://www.w3.org/2000/svg">
<path d="M3 0V70.1129C3 83.92 14.1929 95.1129 28 95.1129H313C326.807 95.1129 338 106.306 338 120.113V176C338 189.807 326.807 201 313 201H28C14.1929 201 3 212.193 3 226V287.5C3 301.307 14.1929 312.5 28 312.5H313C326.807 312.5 338 323.693 338 337.5V410C338 423.807 326.807 435 313 435H28C14.1929 435 3 446.193 3 460V495.5" stroke="url(#paint0_linear_8_485)" stroke-width="5"/>
<path d="M3 0V70.1129C3 83.92 14.1929 95.1129 28 95.1129H313C326.807 95.1129 338 106.306 338 120.113V176C338 189.807 326.807 201 313 201H28C14.1929 201 3 212.193 3 226V287.5C3 301.307 14.1929 312.5 28 312.5H313C326.807 312.5 338 323.693 338 337.5V410C338 423.807 326.807 435 313 435H28C14.1929 435 3 446.193 3 460V495.5" stroke="url(#paint1_linear_8_485)" stroke-width="5"/>
<path d="M3 0V70.1129C3 83.92 14.1929 95.1129 28 95.1129H313C326.807 95.1129 338 106.306 338 120.113V176C338 189.807 326.807 201 313 201H28C14.1929 201 3 212.193 3 226V287.5C3 301.307 14.1929 312.5 28 312.5H313C326.807 312.5 338 323.693 338 337.5V410C338 423.807 326.807 435 313 435H28C14.1929 435 3 446.193 3 460V495.5" stroke="url(#paint2_linear_8_485)" stroke-width="5"/>
<defs>
<linearGradient id="paint0_linear_8_485" x1="3.0003" y1="-79.838" x2="1245.78" y2="686.052" gradientUnits="userSpaceOnUse">
<stop stop-color="#C5EF00"/>
<stop offset="0.541704" stop-color="#DFDFDF"/>
<stop offset="1" stop-color="#C5EF00"/>
</linearGradient>
<linearGradient id="paint1_linear_8_485" x1="3" y1="0" x2="128.295" y2="134.058" gradientUnits="userSpaceOnUse">
<stop/>
<stop offset="1" stop-opacity="0"/>
</linearGradient>
<linearGradient id="paint2_linear_8_485" x1="44" y1="433.5" x2="2.98318" y2="495.989" gradientUnits="userSpaceOnUse">
<stop offset="0.23023" stop-opacity="0"/>
<stop offset="0.999756"/>
</linearGradient>
</defs>
</svg>
