<svg width="1566" height="351" viewBox="0 0 1566 351" fill="none" xmlns="http://www.w3.org/2000/svg">
<path d="M3 0V176.452C3 204.066 25.3858 226.452 53 226.452H348.132C375.746 226.452 398.132 204.066 398.132 176.452V151.903C398.132 124.289 420.517 101.903 448.132 101.903H743.263C770.877 101.903 793.263 124.289 793.263 151.903V216.889C793.263 244.504 815.649 266.889 843.263 266.889H1225.63C1253.25 266.889 1275.63 244.504 1275.63 216.889V174.548C1275.63 146.934 1298.02 124.548 1325.63 124.548H1513C1540.61 124.548 1563 146.934 1563 174.548V351" stroke="url(#paint0_linear_4_274)" stroke-width="5"/>
<path d="M3 0V176.452C3 204.066 25.3858 226.452 53 226.452H348.132C375.746 226.452 398.132 204.066 398.132 176.452V151.903C398.132 124.289 420.517 101.903 448.132 101.903H743.263C770.877 101.903 793.263 124.289 793.263 151.903V216.889C793.263 244.504 815.649 266.889 843.263 266.889H1225.63C1253.25 266.889 1275.63 244.504 1275.63 216.889V174.548C1275.63 146.934 1298.02 124.548 1325.63 124.548H1513C1540.61 124.548 1563 146.934 1563 174.548V351" stroke="url(#paint1_linear_4_274)" stroke-width="5"/>
<path d="M3 0V176.452C3 204.066 25.3858 226.452 53 226.452H348.132C375.746 226.452 398.132 204.066 398.132 176.452V151.903C398.132 124.289 420.517 101.903 448.132 101.903H743.263C770.877 101.903 793.263 124.289 793.263 151.903V216.889C793.263 244.504 815.649 266.889 843.263 266.889H1225.63C1253.25 266.889 1275.63 244.504 1275.63 216.889V174.548C1275.63 146.934 1298.02 124.548 1325.63 124.548H1513C1540.61 124.548 1563 146.934 1563 174.548V351" stroke="url(#paint2_linear_4_274)" stroke-width="5"/>
<defs>
<linearGradient id="paint0_linear_4_274" x1="3.00003" y1="55.3997" x2="1217.93" y2="803.921" gradientUnits="userSpaceOnUse">
<stop stop-color="#C5EF00"/>
<stop offset="0.541704" stop-color="#DFDFDF"/>
<stop offset="1" stop-color="#C5EF00"/>
</linearGradient>
<linearGradient id="paint1_linear_4_274" x1="2.99999" y1="49.5" x2="125.5" y2="264.5" gradientUnits="userSpaceOnUse">
<stop/>
<stop offset="1" stop-opacity="0"/>
</linearGradient>
<linearGradient id="paint2_linear_4_274" x1="1563" y1="351" x2="1396.5" y2="135" gradientUnits="userSpaceOnUse">
<stop/>
<stop offset="1" stop-opacity="0"/>
</linearGradient>
</defs>
</svg>
