<svg width="1566" height="166" viewBox="0 0 1566 166" fill="none" xmlns="http://www.w3.org/2000/svg">
<path d="M3 0.903229V75.4516C3 103.066 25.3858 125.452 53 125.452H348.132C375.746 125.452 398.132 103.066 398.132 75.4516V73.5484C398.132 45.9341 420.517 23.5484 448.132 23.5484H743.263C770.877 23.5484 793.263 45.9342 793.263 73.5484V75.4516C793.263 103.066 815.649 125.452 843.263 125.452H1225.63C1253.25 125.452 1275.63 103.066 1275.63 75.4516V73.5484C1275.63 45.9341 1298.02 23.5484 1325.63 23.5484H1513C1540.61 23.5484 1563 45.9341 1563 73.5484V165.889" stroke="url(#paint0_linear_4_274)" stroke-width="5"/>
<path d="M3 0.903229V75.4516C3 103.066 25.3858 125.452 53 125.452H348.132C375.746 125.452 398.132 103.066 398.132 75.4516V73.5484C398.132 45.9341 420.517 23.5484 448.132 23.5484H743.263C770.877 23.5484 793.263 45.9342 793.263 73.5484V75.4516C793.263 103.066 815.649 125.452 843.263 125.452H1225.63C1253.25 125.452 1275.63 103.066 1275.63 75.4516V73.5484C1275.63 45.9341 1298.02 23.5484 1325.63 23.5484H1513C1540.61 23.5484 1563 45.9341 1563 73.5484V165.889" stroke="url(#paint1_linear_4_274)" stroke-width="5"/>
<path d="M3 0.903229V75.4516C3 103.066 25.3858 125.452 53 125.452H348.132C375.746 125.452 398.132 103.066 398.132 75.4516V73.5484C398.132 45.9341 420.517 23.5484 448.132 23.5484H743.263C770.877 23.5484 793.263 45.9342 793.263 73.5484V75.4516C793.263 103.066 815.649 125.452 843.263 125.452H1225.63C1253.25 125.452 1275.63 103.066 1275.63 75.4516V73.5484C1275.63 45.9341 1298.02 23.5484 1325.63 23.5484H1513C1540.61 23.5484 1563 45.9341 1563 73.5484V165.889" stroke="url(#paint2_linear_4_274)" stroke-width="5"/>
<defs>
<linearGradient id="paint0_linear_4_274" x1="3.00011" y1="-45.6004" x2="1217.93" y2="702.921" gradientUnits="userSpaceOnUse">
<stop stop-color="#C5EF00"/>
<stop offset="0.541704" stop-color="#DFDFDF"/>
<stop offset="1" stop-color="#C5EF00"/>
</linearGradient>
<linearGradient id="paint1_linear_4_274" x1="2.99999" y1="22" x2="125.5" y2="163.5" gradientUnits="userSpaceOnUse">
<stop/>
<stop offset="1" stop-opacity="0"/>
</linearGradient>
<linearGradient id="paint2_linear_4_274" x1="1563" y1="166" x2="1396.5" y2="34" gradientUnits="userSpaceOnUse">
<stop/>
<stop offset="1" stop-opacity="0"/>
</linearGradient>
</defs>
</svg>
